<svg width="20" height="20" viewBox="0 0 20 20" fill="none" xmlns="http://www.w3.org/2000/svg">
<path d="M20 10.0001C20 4.47756 15.5225 6.10352e-05 10 6.10352e-05C4.4775 6.10352e-05 0 4.47756 0 10.0001C0 14.9917 3.65667 19.1284 8.4375 19.8784V12.8909H5.89833V9.99923H8.4375V7.79756C8.4375 5.29173 9.93083 3.90673 12.215 3.90673C13.3083 3.90673 14.4533 4.10256 14.4533 4.10256V6.56339H13.1917C11.9492 6.56339 11.5617 7.33423 11.5617 8.12506V10.0001H14.335L13.8917 12.8917H11.5617V19.8792C16.3433 19.1284 20 14.9909 20 10.0001Z" fill="#3B82F6"/>
</svg>
