<svg width="70" height="70" viewBox="0 0 70 70" fill="none" xmlns="http://www.w3.org/2000/svg">
<g filter="url(#filter0_d_62_58)">
<rect x="15" y="15" width="40" height="40" rx="12" fill="#1DB954" shape-rendering="crispEdges"/>
<path d="M34.975 45.85C33.475 45.85 32.0708 45.5667 30.7625 45C29.4542 44.4333 28.3083 43.6583 27.325 42.675C26.3417 41.6917 25.5667 40.5417 25 39.225C24.4333 37.9083 24.15 36.5 24.15 35C24.15 33.5 24.4333 32.0917 25 30.775C25.5667 29.4583 26.3417 28.3083 27.325 27.325C28.3083 26.3417 29.4542 25.5667 30.7625 25C32.0708 24.4333 33.475 24.15 34.975 24.15C36.475 24.15 37.8833 24.4333 39.2 25C40.5167 25.5667 41.6708 26.3417 42.6625 27.325C43.6542 28.3083 44.4333 29.4583 45 30.775C45.5667 32.0917 45.85 33.5 45.85 35C45.85 36.5 45.5667 37.9083 45 39.225C44.4333 40.5417 43.6542 41.6917 42.6625 42.675C41.6708 43.6583 40.5167 44.4333 39.2 45C37.8833 45.5667 36.475 45.85 34.975 45.85ZM39.8 32.7L41.125 32.25L41.475 30.95C40.975 30.1833 40.3667 29.5208 39.65 28.9625C38.9333 28.4042 38.1417 28 37.275 27.75L35.95 28.675V30L39.8 32.7ZM30.2 32.7L34.05 30V28.675L32.725 27.75C31.8583 28 31.0667 28.4042 30.35 28.9625C29.6333 29.5208 29.025 30.1833 28.525 30.95L28.875 32.25L30.2 32.7ZM29.175 40.1L30.3 40L31 38.7L29.625 34.525L28.275 34.025L27.3 34.775C27.3 35.825 27.4417 36.775 27.725 37.625C28.0083 38.475 28.4917 39.3 29.175 40.1ZM35 42.8C35.4 42.8 35.8042 42.7625 36.2125 42.6875C36.6208 42.6125 37.025 42.525 37.425 42.425L38.075 40.975L37.425 39.9H32.575L31.925 40.975L32.625 42.425C33.0083 42.525 33.4 42.6125 33.8 42.6875C34.2 42.7625 34.6 42.8 35 42.8ZM32.825 37.975H37.175L38.5 34.125L35 31.7L31.55 34.125L32.825 37.975ZM40.825 40.1C41.5083 39.3 41.9917 38.475 42.275 37.625C42.5583 36.775 42.7 35.825 42.7 34.775L41.725 34.075L40.375 34.525L39 38.7L39.7 40L40.825 40.1Z" fill="#0A120D"/>
</g>
<defs>
<filter id="filter0_d_62_58" x="0" y="0" width="70" height="70" filterUnits="userSpaceOnUse" color-interpolation-filters="sRGB">
<feFlood flood-opacity="0" result="BackgroundImageFix"/>
<feColorMatrix in="SourceAlpha" type="matrix" values="0 0 0 0 0 0 0 0 0 0 0 0 0 0 0 0 0 0 127 0" result="hardAlpha"/>
<feOffset/>
<feGaussianBlur stdDeviation="7.5"/>
<feComposite in2="hardAlpha" operator="out"/>
<feColorMatrix type="matrix" values="0 0 0 0 0.113725 0 0 0 0 0.72549 0 0 0 0 0.329412 0 0 0 0.4 0"/>
<feBlend mode="normal" in2="BackgroundImageFix" result="effect1_dropShadow_62_58"/>
<feBlend mode="normal" in="SourceGraphic" in2="effect1_dropShadow_62_58" result="shape"/>
</filter>
</defs>
</svg>
